<svg xmlns="http://www.w3.org/2000/svg" xmlns:xlink="http://www.w3.org/1999/xlink" width="1400" zoomAndPan="magnify" viewBox="0 0 1050 1049.999947" height="1400" preserveAspectRatio="xMidYMid meet" version="1.0"><defs><g/><clipPath id="13e4752feb"><path d="M 155 331 L 517 331 L 517 704 L 155 704 Z M 155 331 " clip-rule="nonzero"/></clipPath><clipPath id="1366b85718"><path d="M 368.363281 205.625 L 657.367188 461.875 L 435.449219 712.160156 L 146.441406 455.90625 Z M 368.363281 205.625 " clip-rule="nonzero"/></clipPath><clipPath id="7acbcd2674"><path d="M 368.363281 205.625 L 657.367188 461.875 L 435.449219 712.160156 L 146.441406 455.90625 Z M 368.363281 205.625 " clip-rule="nonzero"/></clipPath></defs><g clip-path="url(#13e4752feb)"><g clip-path="url(#1366b85718)"><g clip-path="url(#7acbcd2674)"><path fill="#bb14e3" d="M 165.804688 443.007812 L 496.546875 332.644531 C 507.484375 328.980469 518.246094 338.523438 515.917969 349.820312 L 445.886719 691.453125 C 443.558594 702.75 429.9375 707.273438 421.328125 699.640625 L 160.5625 468.425781 C 152.003906 460.738281 154.867188 446.671875 165.804688 443.007812 Z M 165.804688 443.007812 " fill-opacity="1" fill-rule="nonzero"/></g></g></g><g fill="#ffffff" fill-opacity="1"><g transform="translate(368.190197, 483.067992)"><g><path d="M 11.0625 0 L 11.0625 -100.59375 L 87.65625 -100.59375 L 87.65625 -81.765625 L 33.765625 -81.765625 L 33.765625 -59.921875 L 82.203125 -59.921875 L 82.203125 -41.09375 L 33.765625 -41.09375 L 33.765625 -18.828125 L 89.234375 -18.828125 L 89.234375 0 Z M 11.0625 0 "/></g></g></g><g fill="#ffffff" fill-opacity="1"><g transform="translate(464.186491, 483.067992)"><g><path d="M 32.765625 -63.375 C 35.441406 -68.164062 38.9375 -71.804688 43.25 -74.296875 C 47.5625 -76.785156 52.59375 -78.078125 58.34375 -78.171875 L 58.34375 -57.34375 C 57.570312 -57.4375 56.421875 -57.484375 54.890625 -57.484375 C 48.085938 -57.484375 42.695312 -55.640625 38.71875 -51.953125 C 34.75 -48.265625 32.765625 -43.351562 32.765625 -37.21875 L 32.765625 0 L 10.640625 0 L 10.640625 -77.3125 L 32.765625 -77.3125 Z M 32.765625 -63.375 "/></g></g></g><g fill="#ffffff" fill-opacity="1"><g transform="translate(523.968613, 483.067992)"><g><path d="M 77.171875 0 L 55.46875 0 L 55.46875 -9.046875 C 52.882812 -5.796875 49.53125 -3.304688 45.40625 -1.578125 C 41.289062 0.140625 36.550781 1 31.1875 1 C 23.039062 1 16.570312 -1.222656 11.78125 -5.671875 C 6.988281 -10.128906 4.59375 -15.953125 4.59375 -23.140625 C 4.59375 -30.421875 7.15625 -36.09375 12.28125 -40.15625 C 17.40625 -44.226562 24.664062 -46.316406 34.0625 -46.421875 L 55.328125 -46.421875 L 55.328125 -47.859375 C 55.328125 -51.972656 53.960938 -55.15625 51.234375 -57.40625 C 48.503906 -59.65625 44.503906 -60.78125 39.234375 -60.78125 C 32.046875 -60.78125 24.378906 -58.53125 16.234375 -54.03125 L 9.34375 -69.265625 C 15.46875 -72.328125 21.210938 -74.578125 26.578125 -76.015625 C 31.941406 -77.453125 37.835938 -78.171875 44.265625 -78.171875 C 54.609375 -78.171875 62.628906 -75.726562 68.328125 -70.84375 C 74.023438 -65.957031 76.925781 -59.15625 77.03125 -50.4375 Z M 37.359375 -14.796875 C 41.960938 -14.796875 45.9375 -15.894531 49.28125 -18.09375 C 52.632812 -20.300781 54.648438 -23.082031 55.328125 -26.4375 L 55.328125 -33.34375 L 37.9375 -33.34375 C 33.625 -33.34375 30.4375 -32.644531 28.375 -31.25 C 26.320312 -29.863281 25.296875 -27.640625 25.296875 -24.578125 C 25.296875 -21.609375 26.375 -19.234375 28.53125 -17.453125 C 30.6875 -15.679688 33.628906 -14.796875 37.359375 -14.796875 Z M 37.359375 -14.796875 "/></g></g></g><g fill="#ffffff" fill-opacity="1"><g transform="translate(609.617985, 483.067992)"><g><path d="M 48.140625 8.625 C 42.773438 22.132812 33.335938 28.890625 19.828125 28.890625 C 15.710938 28.890625 11.976562 28.289062 8.625 27.09375 C 5.269531 25.894531 2.007812 24 -1.15625 21.40625 L 8.1875 5.453125 C 11.539062 8.234375 14.894531 9.625 18.25 9.625 C 22.945312 9.625 26.347656 7.328125 28.453125 2.734375 L 30.609375 -1.578125 L -1.4375 -77.3125 L 21.40625 -77.3125 L 41.671875 -24.140625 L 59.921875 -77.3125 L 82.046875 -77.3125 Z M 48.140625 8.625 "/></g></g></g><g fill="#ffffff" fill-opacity="1"><g transform="translate(368.190197, 647.317977)"><g><path d="M 10.828125 0 L 10.828125 -98.5 L 35.59375 -98.5 L 66.265625 -37.984375 L 96.65625 -98.5 L 121.28125 -98.5 L 121.28125 0 L 101.3125 0 L 101.3125 -66.546875 L 73.3125 -9.984375 L 58.953125 -9.984375 L 30.8125 -66.546875 L 30.8125 0 Z M 10.828125 0 "/></g></g></g><g fill="#ffffff" fill-opacity="1"><g transform="translate(500.454837, 647.317977)"><g><path d="M 42.921875 -76.40625 C 55.109375 -76.40625 64.367188 -72.882812 70.703125 -65.84375 C 77.035156 -58.8125 80.203125 -49.007812 80.203125 -36.4375 C 80.203125 -34.1875 80.15625 -32.453125 80.0625 -31.234375 L 25.75 -31.234375 C 26.96875 -26.453125 29.3125 -22.722656 32.78125 -20.046875 C 36.25 -17.378906 40.425781 -16.046875 45.3125 -16.046875 C 48.875 -16.046875 52.296875 -16.722656 55.578125 -18.078125 C 58.859375 -19.441406 61.8125 -21.4375 64.4375 -24.0625 L 75.84375 -12.515625 C 71.988281 -8.203125 67.316406 -4.894531 61.828125 -2.59375 C 56.347656 -0.300781 50.234375 0.84375 43.484375 0.84375 C 35.503906 0.84375 28.535156 -0.75 22.578125 -3.9375 C 16.617188 -7.125 12.019531 -11.625 8.78125 -17.4375 C 5.550781 -23.257812 3.9375 -29.96875 3.9375 -37.5625 C 3.9375 -45.257812 5.578125 -52.035156 8.859375 -57.890625 C 12.140625 -63.753906 16.734375 -68.304688 22.640625 -71.546875 C 28.554688 -74.785156 35.316406 -76.40625 42.921875 -76.40625 Z M 59.796875 -44.046875 C 59.609375 -49.015625 58.015625 -53 55.015625 -56 C 52.015625 -59 48.03125 -60.5 43.0625 -60.5 C 38.363281 -60.5 34.441406 -59.019531 31.296875 -56.0625 C 28.160156 -53.113281 26.171875 -49.109375 25.328125 -44.046875 Z M 59.796875 -44.046875 "/></g></g></g><g fill="#ffffff" fill-opacity="1"><g transform="translate(584.456958, 647.317977)"><g><path d="M 110.59375 -76.546875 C 118.9375 -76.546875 125.570312 -73.941406 130.5 -68.734375 C 135.425781 -63.523438 137.890625 -56.46875 137.890625 -47.5625 L 137.890625 0 L 116.359375 0 L 116.359375 -41.21875 C 116.359375 -46.101562 115.046875 -49.90625 112.421875 -52.625 C 109.796875 -55.34375 106.234375 -56.703125 101.734375 -56.703125 C 96.566406 -56.609375 92.484375 -54.78125 89.484375 -51.21875 C 86.484375 -47.65625 84.984375 -43.054688 84.984375 -37.421875 L 84.984375 0 L 63.453125 0 L 63.453125 -41.21875 C 63.453125 -46.007812 62.160156 -49.785156 59.578125 -52.546875 C 57.003906 -55.316406 53.46875 -56.703125 48.96875 -56.703125 C 43.800781 -56.609375 39.691406 -54.78125 36.640625 -51.21875 C 33.597656 -47.65625 32.078125 -43.054688 32.078125 -37.421875 L 32.078125 0 L 10.40625 0 L 10.40625 -75.703125 L 32.078125 -75.703125 L 32.078125 -62.609375 C 37.328125 -71.710938 45.863281 -76.359375 57.6875 -76.546875 C 64.0625 -76.546875 69.453125 -75.019531 73.859375 -71.96875 C 78.273438 -68.914062 81.421875 -64.625 83.296875 -59.09375 C 85.734375 -64.8125 89.273438 -69.125 93.921875 -72.03125 C 98.566406 -74.945312 104.125 -76.453125 110.59375 -76.546875 Z M 110.59375 -76.546875 "/></g></g></g><g fill="#ffffff" fill-opacity="1"><g transform="translate(730.651602, 647.317977)"><g><path d="M 10.40625 0 L 10.40625 -75.703125 L 32.078125 -75.703125 L 32.078125 0 Z M 21.234375 -109.328125 C 24.710938 -109.328125 27.550781 -108.203125 29.75 -105.953125 C 31.957031 -103.703125 33.0625 -100.789062 33.0625 -97.21875 C 33.0625 -93.65625 31.957031 -90.75 29.75 -88.5 C 27.550781 -86.25 24.710938 -85.125 21.234375 -85.125 C 17.859375 -85.125 15.066406 -86.269531 12.859375 -88.5625 C 10.660156 -90.863281 9.5625 -93.75 9.5625 -97.21875 C 9.5625 -100.789062 10.660156 -103.703125 12.859375 -105.953125 C 15.066406 -108.203125 17.859375 -109.328125 21.234375 -109.328125 Z M 21.234375 -109.328125 "/></g></g></g><g fill="#ffffff" fill-opacity="1"><g transform="translate(773.145113, 647.317977)"><g><path d="M 11.109375 0 L 11.109375 -104.40625 L 32.78125 -104.40625 L 32.78125 0 Z M 11.109375 0 "/></g></g></g><g fill="#ffffff" fill-opacity="1"><g transform="translate(817.186414, 647.317977)"><g><path d="M 10.40625 0 L 10.40625 -75.703125 L 32.078125 -75.703125 L 32.078125 0 Z M 21.234375 -109.328125 C 24.710938 -109.328125 27.550781 -108.203125 29.75 -105.953125 C 31.957031 -103.703125 33.0625 -100.789062 33.0625 -97.21875 C 33.0625 -93.65625 31.957031 -90.75 29.75 -88.5 C 27.550781 -86.25 24.710938 -85.125 21.234375 -85.125 C 17.859375 -85.125 15.066406 -86.269531 12.859375 -88.5625 C 10.660156 -90.863281 9.5625 -93.75 9.5625 -97.21875 C 9.5625 -100.789062 10.660156 -103.703125 12.859375 -105.953125 C 15.066406 -108.203125 17.859375 -109.328125 21.234375 -109.328125 Z M 21.234375 -109.328125 "/></g></g></g></svg>