<svg xmlns="http://www.w3.org/2000/svg" xmlns:xlink="http://www.w3.org/1999/xlink" width="700" zoomAndPan="magnify" viewBox="0 0 375 374.999991" height="500" preserveAspectRatio="xMidYMid meet" version="1.0"><defs><g/><clipPath id="cc48e03103"><path d="M 20 112 L 180 112 L 180 270 L 20 270 Z M 20 112 " clip-rule="nonzero"/></clipPath><clipPath id="2e1d9d915e"><path d="M 124.152344 54.058594 L 233.285156 177.8125 L 125.84375 272.558594 L 16.710938 148.804688 Z M 124.152344 54.058594 " clip-rule="nonzero"/></clipPath><clipPath id="f4217b25c5"><path d="M 124.152344 54.058594 L 233.285156 177.8125 L 125.84375 272.558594 L 16.710938 148.804688 Z M 124.152344 54.058594 " clip-rule="nonzero"/></clipPath></defs><g clip-path="url(#cc48e03103)"><g clip-path="url(#2e1d9d915e)"><g clip-path="url(#f4217b25c5)"><path fill="#af0007" d="M 134.476562 263.015625 L 134.476562 263.011719 L 179.554688 123.109375 L 179.53125 123.078125 C 180.433594 120.398438 179.953125 117.332031 177.945312 115.058594 C 176.148438 113.019531 173.5625 112.109375 171.050781 112.339844 L 171.035156 112.324219 L 170.9375 112.34375 C 170.464844 112.394531 170 112.496094 169.535156 112.628906 L 27.195312 141.441406 C 25.644531 141.648438 24.136719 142.300781 22.871094 143.414062 C 19.480469 146.402344 19.15625 151.578125 22.148438 154.96875 L 120.40625 266.394531 C 123.398438 269.785156 128.570312 270.109375 131.960938 267.121094 C 133.242188 265.992188 134.082031 264.550781 134.476562 263.015625 Z M 134.476562 263.015625 " fill-opacity="1" fill-rule="nonzero"/></g></g></g><g fill="#ffffff" fill-opacity="1"><g transform="translate(108.499831, 188.529566)"><g><path d="M 42.859375 -43 L 15.203125 -43 L 15.203125 -29.3125 L 39.953125 -29.3125 L 39.953125 -21.640625 L 15.203125 -21.640625 L 15.203125 -7.671875 L 43.71875 -7.671875 L 43.71875 0 L 6.65625 0 L 6.65625 -50.671875 L 42.859375 -50.671875 Z M 42.859375 -43 "/></g></g></g><g fill="#ffffff" fill-opacity="1"><g transform="translate(155.980442, 188.529566)"><g><path d="M 14.484375 -38.515625 L 14.484375 -30.84375 C 17.128906 -36.144531 21.566406 -38.796875 27.796875 -38.796875 L 27.796875 -30.84375 C 23.984375 -31.03125 20.894531 -30.132812 18.53125 -28.15625 C 16.164062 -26.175781 14.816406 -23.5 14.484375 -20.125 L 14.484375 0 L 6.15625 0 L 6.15625 -38.515625 Z M 14.484375 -38.515625 "/></g></g></g><g fill="#ffffff" fill-opacity="1"><g transform="translate(184.497757, 188.529566)"><g><path d="M 29.25 0 L 29.25 -4.703125 C 26.5 -1.328125 22.25 0.359375 16.5 0.359375 C 12.40625 0.359375 9.125 -0.757812 6.65625 -3 C 4.195312 -5.25 2.96875 -8.109375 2.96875 -11.578125 C 2.96875 -15.097656 4.242188 -17.894531 6.796875 -19.96875 C 9.359375 -22.050781 12.929688 -23.117188 17.515625 -23.171875 L 29.171875 -23.171875 L 29.171875 -24.328125 C 29.171875 -26.785156 28.382812 -28.6875 26.8125 -30.03125 C 25.25 -31.382812 22.972656 -32.0625 19.984375 -32.0625 C 16.265625 -32.0625 12.472656 -30.757812 8.609375 -28.15625 L 5.21875 -33.953125 C 8.15625 -35.691406 10.796875 -36.929688 13.140625 -37.671875 C 15.484375 -38.421875 18.367188 -38.796875 21.796875 -38.796875 C 26.710938 -38.796875 30.519531 -37.601562 33.21875 -35.21875 C 35.925781 -32.832031 37.304688 -29.515625 37.359375 -25.265625 L 37.421875 0 Z M 18.25 -6.21875 C 21.1875 -6.21875 23.679688 -6.90625 25.734375 -8.28125 C 27.785156 -9.664062 28.929688 -11.414062 29.171875 -13.53125 L 29.171875 -17.078125 L 18.75 -17.078125 C 16 -17.078125 13.984375 -16.675781 12.703125 -15.875 C 11.421875 -15.082031 10.78125 -13.769531 10.78125 -11.9375 C 10.78125 -10.207031 11.441406 -8.820312 12.765625 -7.78125 C 14.097656 -6.738281 15.925781 -6.21875 18.25 -6.21875 Z M 18.25 -6.21875 "/></g></g></g><g fill="#ffffff" fill-opacity="1"><g transform="translate(226.911836, 188.529566)"><g><path d="M 38.796875 -38.515625 L 21.28125 5.28125 C 18.914062 11.363281 14.742188 14.40625 8.765625 14.40625 C 5.429688 14.40625 2.460938 13.316406 -0.140625 11.140625 L 3.40625 4.703125 C 5.144531 5.960938 6.804688 6.59375 8.390625 6.59375 C 11.003906 6.59375 12.960938 5.164062 14.265625 2.3125 L 15.5625 -0.578125 L -0.359375 -38.515625 L 8.25 -38.515625 L 19.765625 -9.34375 L 30.46875 -38.515625 Z M 38.796875 -38.515625 "/></g></g></g><g fill="#ffffff" fill-opacity="1"><g transform="translate(108.499831, 253.144872)"><g><path d="M 60.234375 0 L 52.34375 0 L 52.265625 -37.859375 L 36.265625 -5.28125 L 30.6875 -5.28125 L 14.6875 -37.859375 L 14.6875 0 L 6.65625 0 L 6.65625 -50.671875 L 16.796875 -50.671875 L 33.515625 -17.015625 L 50.171875 -50.671875 L 60.234375 -50.671875 Z M 60.234375 0 "/></g></g></g><g fill="#ffffff" fill-opacity="1"><g transform="translate(175.450379, 253.144872)"><g><path d="M 22 -38.796875 C 28.613281 -38.796875 33.40625 -36.804688 36.375 -32.828125 C 39.34375 -28.847656 40.5625 -23.265625 40.03125 -16.078125 L 10.9375 -16.078125 C 11.601562 -13.078125 13 -10.71875 15.125 -9 C 17.25 -7.289062 19.832031 -6.4375 22.875 -6.4375 C 27.21875 -6.4375 30.835938 -7.9375 33.734375 -10.9375 L 38.15625 -6.21875 C 34.195312 -1.875 28.882812 0.296875 22.21875 0.296875 C 16.28125 0.296875 11.515625 -1.5 7.921875 -5.09375 C 4.328125 -8.695312 2.53125 -13.394531 2.53125 -19.1875 C 2.53125 -24.976562 4.335938 -29.679688 7.953125 -33.296875 C 11.578125 -36.921875 16.257812 -38.753906 22 -38.796875 Z M 10.78125 -22.15625 L 32.796875 -22.15625 C 32.648438 -25.238281 31.609375 -27.671875 29.671875 -29.453125 C 27.742188 -31.242188 25.210938 -32.140625 22.078125 -32.140625 C 19.035156 -32.140625 16.515625 -31.242188 14.515625 -29.453125 C 12.515625 -27.671875 11.269531 -25.238281 10.78125 -22.15625 Z M 10.78125 -22.15625 "/></g></g></g><g fill="#ffffff" fill-opacity="1"><g transform="translate(218.009222, 253.144872)"><g><path d="M 56.390625 -38.796875 C 60.785156 -38.796875 64.238281 -37.46875 66.75 -34.8125 C 69.257812 -32.164062 70.515625 -28.550781 70.515625 -23.96875 L 70.515625 0 L 62.1875 0 L 62.1875 -21.640625 C 62.1875 -24.585938 61.375 -26.894531 59.75 -28.5625 C 58.132812 -30.226562 55.90625 -31.0625 53.0625 -31.0625 C 49.832031 -30.957031 47.265625 -29.78125 45.359375 -27.53125 C 43.453125 -25.289062 42.5 -22.457031 42.5 -19.03125 L 42.5 0 L 34.171875 0 L 34.171875 -21.640625 C 34.171875 -24.585938 33.359375 -26.894531 31.734375 -28.5625 C 30.117188 -30.226562 27.914062 -31.0625 25.125 -31.0625 C 21.84375 -30.957031 19.234375 -29.78125 17.296875 -27.53125 C 15.367188 -25.289062 14.40625 -22.457031 14.40625 -19.03125 L 14.40625 0 L 6.15625 0 L 6.15625 -38.515625 L 14.40625 -38.515625 L 14.40625 -31.0625 C 16.96875 -36.21875 21.625 -38.796875 28.375 -38.796875 C 31.800781 -38.796875 34.660156 -37.988281 36.953125 -36.375 C 39.242188 -34.757812 40.847656 -32.476562 41.765625 -29.53125 C 44.128906 -35.707031 49.003906 -38.796875 56.390625 -38.796875 Z M 56.390625 -38.796875 "/></g></g></g><g fill="#ffffff" fill-opacity="1"><g transform="translate(293.500488, 253.144872)"><g><path d="M 6.796875 -53.171875 C 7.722656 -54.109375 8.882812 -54.578125 10.28125 -54.578125 C 11.675781 -54.578125 12.832031 -54.109375 13.75 -53.171875 C 14.664062 -52.234375 15.125 -51.015625 15.125 -49.515625 C 15.125 -48.066406 14.664062 -46.867188 13.75 -45.921875 C 12.832031 -44.984375 11.675781 -44.515625 10.28125 -44.515625 C 8.882812 -44.515625 7.722656 -44.984375 6.796875 -45.921875 C 5.878906 -46.867188 5.421875 -48.066406 5.421875 -49.515625 C 5.421875 -51.015625 5.878906 -52.234375 6.796875 -53.171875 Z M 14.40625 0 L 6.15625 0 L 6.15625 -38.515625 L 14.40625 -38.515625 Z M 14.40625 0 "/></g></g></g><g fill="#ffffff" fill-opacity="1"><g transform="translate(314.05611, 253.144872)"><g><path d="M 14.84375 0 L 6.515625 0 L 6.515625 -53.71875 L 14.84375 -53.71875 Z M 14.84375 0 "/></g></g></g><g fill="#ffffff" fill-opacity="1"><g transform="translate(335.407906, 253.144872)"><g><path d="M 6.796875 -53.171875 C 7.722656 -54.109375 8.882812 -54.578125 10.28125 -54.578125 C 11.675781 -54.578125 12.832031 -54.109375 13.75 -53.171875 C 14.664062 -52.234375 15.125 -51.015625 15.125 -49.515625 C 15.125 -48.066406 14.664062 -46.867188 13.75 -45.921875 C 12.832031 -44.984375 11.675781 -44.515625 10.28125 -44.515625 C 8.882812 -44.515625 7.722656 -44.984375 6.796875 -45.921875 C 5.878906 -46.867188 5.421875 -48.066406 5.421875 -49.515625 C 5.421875 -51.015625 5.878906 -52.234375 6.796875 -53.171875 Z M 14.40625 0 L 6.15625 0 L 6.15625 -38.515625 L 14.40625 -38.515625 Z M 14.40625 0 "/></g></g></g></svg>